<svg width="51" height="24" viewBox="0 0 51 24" fill="none" xmlns="http://www.w3.org/2000/svg">
<g clip-path="url(#clip0_257_1736)">
<path d="M41.2091 0C41.1267 0.31945 41.3946 0.185487 41.4976 0.206097C42.2911 0.36067 43.064 0.566767 43.7956 0.937742C45.4444 1.77243 46.2688 3.15328 46.4543 4.94633C46.4852 5.23487 46.4543 5.5234 46.4543 5.84285C45.3001 5.84285 44.1151 5.84285 42.9094 5.84285C42.827 4.4517 41.8377 3.96737 40.663 3.70975C39.6634 3.49335 38.6638 3.45213 37.6436 3.59639C36.2628 3.79219 35.325 4.51353 34.9541 5.87377C34.5625 7.30614 34.5419 8.75912 34.8922 10.2018C35.2529 11.7063 36.2216 12.5925 37.7261 12.912C38.8184 13.1387 39.9107 13.1284 41.003 12.9429C42.1056 12.7471 42.9403 12.2422 43.0022 10.9541C44.1975 10.9541 45.3517 10.9541 46.5161 10.9541C46.7737 12.7677 45.8154 14.7875 44.0842 15.6634C42.9712 16.2301 41.7862 16.4568 40.5702 16.5393C39.0039 16.6526 37.4478 16.5908 35.9227 16.1889C33.3053 15.5088 31.6668 13.8394 31.0588 11.2117C30.6054 9.23315 30.6157 7.2237 31.0691 5.24517C31.6977 2.49377 33.4289 0.834693 36.1906 0.237012C36.3349 0.206097 36.5101 0.237012 36.6234 0.113353C36.6338 0.103049 36.6544 0.072134 36.6544 0.072134C36.6338 0.0515243 36.6131 0.0309146 36.5822 0.0103049C38.1177 0 39.6634 0 41.2091 0Z" fill="#7335E7"/>
<path d="M28.9462 24C28.802 23.0313 28.4207 22.1348 28.1528 21.2074C27.9467 20.4654 27.7097 19.7338 27.4727 18.9506C27.8745 18.8476 28.2455 18.8991 28.6165 18.9094C28.8226 18.9094 28.8329 19.0949 28.8741 19.2392C29.1111 20.0223 29.3584 20.8055 29.6264 21.6814C29.9458 21.0219 30.0592 20.3933 30.2653 19.7853C30.5641 18.8579 30.5538 18.8682 31.5019 18.8888C31.7801 18.8991 31.8831 18.9918 31.9553 19.2495C32.182 20.0429 32.4293 20.8261 32.7178 21.7535C32.9033 21.1662 33.0373 20.7231 33.1815 20.2696C33.3258 19.8162 33.4701 19.3628 33.6143 18.9094C34.0368 18.9094 34.4284 18.9094 34.8612 18.9094C34.8509 19.3319 34.6757 19.6823 34.5624 20.0532C34.2223 21.2177 33.8514 22.3821 33.5113 23.5466C33.4701 23.6805 33.2743 23.8351 33.4804 23.9897C32.9961 23.9897 32.522 23.9897 32.0377 23.9897C31.8419 23.0313 31.5122 22.1142 31.1824 21.094C30.863 22.1348 30.5744 23.0623 30.2859 23.9897C29.8428 24 29.3997 24 28.9462 24Z" fill="#7335E7"/>
<path d="M0 18.8476C0.422499 18.9712 0.855303 18.827 1.30872 18.9403C1.57664 19.8162 1.85487 20.7127 2.1331 21.599C2.16402 21.599 2.20524 21.599 2.23615 21.599C2.46286 20.8467 2.73079 20.0945 2.90597 19.3216C3.00902 18.8579 3.29755 18.8785 3.62731 18.8991C3.97767 18.9197 4.36926 18.7548 4.51353 19.3216C4.68871 20.0841 4.95663 20.8158 5.29669 21.5784C5.48218 21.0013 5.65736 20.4345 5.84285 19.8574C6.18291 18.7651 6.18291 18.7651 7.41949 18.9609C6.98669 20.383 6.55389 21.8051 6.13139 23.2271C6.05925 23.4744 5.88407 23.7115 5.97681 24C5.49249 24 5.01846 24 4.53414 24C4.42078 23.0416 4.00859 22.176 3.72005 21.2486C3.44182 22.176 3.01932 23.0416 2.88536 24C2.44225 24 1.98884 24 1.54573 24C1.12323 22.6191 0.711035 21.2383 0.267926 19.8574C0.226707 19.7235 0.298841 19.4452 0 19.4659C0 19.2598 0 19.0537 0 18.8476Z" fill="#7335E7"/>
<path d="M13.1902 24C13.1902 22.3615 13.1902 20.7127 13.1902 19.0743C13.1902 19.0434 13.2108 19.0124 13.2314 18.9197C14.3031 18.9197 15.3954 18.8063 16.4774 19.0021C17.2194 19.1464 17.5904 19.6101 17.6316 20.3109C17.6934 21.3516 17.4461 21.8257 16.6629 22.1245C16.5908 22.1554 16.5083 22.176 16.3847 22.2173C16.7557 22.8665 17.3018 23.3508 17.611 23.9897C17.0957 23.9897 16.5805 23.9897 16.0652 23.9897C15.8179 23.2271 14.8905 22.2585 14.4165 22.31C14.4165 22.8665 14.4165 23.4332 14.4165 23.9897C14.0146 24 13.6024 24 13.1902 24ZM14.4474 20.012C14.4474 20.4139 14.4474 20.7643 14.4474 21.1352C14.9111 21.1971 15.3439 21.1868 15.787 21.1559C16.1271 21.1352 16.3847 21.0116 16.395 20.6097C16.4053 20.1769 16.1271 20.0429 15.7767 20.0223C15.3542 19.9914 14.9214 20.012 14.4474 20.012Z" fill="#7335E7"/>
<path d="M8.75915 24C8.90342 23.7733 8.66641 23.8042 8.58397 23.763C8.03781 23.4641 7.71836 23.0004 7.57409 22.4027C7.41952 21.7638 7.40921 21.1146 7.56379 20.4654C7.79049 19.5174 8.41909 18.9712 9.38775 18.8373C12.4277 18.4251 12.9635 20.517 12.4895 22.5058C12.3349 23.1756 11.8712 23.5878 11.2941 23.8969C11.2838 23.9073 11.2632 23.9382 11.2735 23.9382C11.2941 23.9588 11.3148 23.9794 11.3354 24C10.4698 24 9.61445 24 8.75915 24ZM8.73854 21.5371C8.73854 21.5887 8.73854 21.7638 8.76945 21.9287C8.88281 22.5573 9.2847 22.8871 9.95451 22.918C10.6655 22.9489 11.1293 22.6604 11.2941 22.0627C11.4075 21.6402 11.4075 21.2177 11.2941 20.7952C11.1705 20.3212 10.8613 20.0429 10.3667 19.9605C9.295 19.7853 8.73854 20.2696 8.73854 21.5371Z" fill="#7335E7"/>
<path d="M36.9841 24C36.9841 22.3203 36.9841 20.6509 36.9841 18.8991C38.0661 18.93 39.0863 18.7754 40.1065 19.0124C40.9824 19.2185 41.477 19.8162 41.6316 20.6921C41.7141 21.1352 41.7244 21.568 41.6522 22.0214C41.5183 22.9695 40.9927 23.5775 40.0756 23.8557C40.0447 23.866 40.0138 23.8969 40.0138 23.9278C40.0138 23.9485 40.0447 23.9691 40.0653 24C39.0451 24 38.0146 24 36.9841 24ZM38.2619 22.8561C38.9936 22.8149 39.7458 23.0519 40.2302 22.3203C40.5496 21.836 40.5187 20.8776 40.1786 20.4654C39.6634 19.8265 38.9524 20.0326 38.2619 20.0223C38.2619 20.9704 38.2619 21.8772 38.2619 22.8561Z" fill="#7335E7"/>
<path d="M22.7634 24C22.7634 22.3203 22.7634 20.6406 22.7634 18.9094C23.7733 18.9197 24.7729 18.7961 25.7518 19.0022C26.5968 19.1773 27.143 19.7235 27.3182 20.5788C27.5037 21.4753 27.483 22.3512 26.9266 23.1447C26.6484 23.5466 26.1846 23.6703 25.7931 23.897C25.7828 23.9073 25.7724 23.9382 25.7724 23.9382C25.7931 23.9588 25.824 23.9794 25.8446 23.9897C24.8244 24 23.7939 24 22.7634 24ZM23.9897 22.8459C24.7007 22.8149 25.4736 23.0623 25.9373 22.3203C26.298 21.7432 26.298 21.0837 25.9373 20.5067C25.4736 19.775 24.7007 20.0326 23.9897 20.0017C23.9897 20.9704 23.9897 21.8875 23.9897 22.8459Z" fill="#7335E7"/>
<path d="M42.2395 24C42.2395 22.3203 42.2395 20.6406 42.2395 18.93C43.6204 18.93 44.9703 18.93 46.3408 18.93C46.3408 19.2701 46.3408 19.5895 46.3408 19.9708C45.4134 19.9708 44.486 19.9708 43.5173 19.9708C43.5173 20.2903 43.5173 20.5582 43.5173 20.8777C44.352 20.8777 45.1764 20.8777 46.042 20.8777C46.042 21.2486 46.042 21.5681 46.042 21.9391C45.2073 21.9391 44.3726 21.9391 43.5173 21.9391C43.4555 22.2585 43.4658 22.5161 43.507 22.8356C44.4757 22.8356 45.4237 22.8356 46.4645 22.8356C46.4645 23.2581 46.4645 23.6291 46.4645 23.9897C45.0527 24 43.6513 24 42.2395 24Z" fill="#7335E7"/>
<path d="M0.824388 16.2404C0.546157 16.2507 0.278231 16.2714 0 16.2817C0 14.3547 0 12.438 0 10.5109C0.0206097 10.5316 0.0412194 10.5522 0.0618291 10.5728C0.0927437 10.5316 0.144268 10.5006 0.164878 10.4594C0.556462 9.27436 1.38085 8.59424 2.62774 8.2954C1.38085 7.99656 0.546157 7.30614 0.164878 6.13138C0.144268 6.05925 0.103049 5.9459 0 6.07986C0 4.15285 0 2.23615 0 0.309143C0.278231 0.319448 0.546157 0.340058 0.824388 0.350362C0.824388 1.97853 0.814083 3.6067 0.834693 5.23486C0.855303 6.47144 1.42207 7.39888 2.51438 7.97595C2.77201 8.10992 3.06054 8.19235 3.34908 8.30571C1.55603 8.87247 0.824388 9.86174 0.824388 11.7166C0.824388 13.2211 0.824388 14.7256 0.824388 16.2404Z" fill="#FABE55"/>
<path d="M18.2395 24C18.2395 22.3203 18.2395 20.6406 18.2395 18.9506C18.6311 18.8476 19.0021 18.9094 19.4246 18.9197C19.4246 20.2387 19.4246 21.5166 19.4246 22.8459C20.3829 22.8459 21.2897 22.8459 22.2584 22.8459C22.2584 23.2684 22.2584 23.6394 22.2584 24.0103C20.9085 24 19.5791 24 18.2395 24Z" fill="#7335E7"/>
<path d="M50.0714 3.09148C49.9271 2.9266 49.9065 3.10178 49.8447 3.17392C49.3294 3.82312 48.6287 3.79221 47.928 3.62733C47.2685 3.48306 47.083 2.95751 47.0108 2.35983C46.9696 1.97855 47.0005 1.60758 47.1036 1.24691C47.2272 0.793495 47.5261 0.504959 47.9795 0.412215C48.7111 0.278252 49.4119 0.257642 49.9065 0.968677C49.9683 1.05112 50.0405 1.06142 50.0714 0.927458C50.0714 1.6488 50.0714 2.37014 50.0714 3.09148ZM49.3088 1.06142C48.8245 0.711056 48.2783 0.700751 47.9073 1.04081C47.32 1.29843 47.4952 1.82398 47.4849 2.27739C47.4849 2.68959 47.6394 3.06056 48.0825 3.19453C48.5359 3.33879 48.9791 3.32849 49.4325 2.87507C48.7317 3.05026 48.6699 2.43197 48.3092 2.18465C48.2165 2.88538 48.2165 2.88538 47.8455 2.81325C47.8764 2.22587 47.7837 1.62819 47.897 1.03051C48.3402 1.09234 48.7936 0.978982 49.2264 1.15416C49.4119 1.58697 49.4634 1.97855 48.9275 2.22587C49.0924 2.43197 49.247 2.62776 49.4634 2.88538C49.6901 2.17434 49.7519 1.59727 49.3088 1.06142ZM48.2989 1.45301C48.2062 1.81367 48.4123 1.81367 48.6287 1.80337C48.773 1.79307 48.9687 1.76215 48.8863 1.58697C48.773 1.30874 48.5153 1.48392 48.2989 1.45301Z" fill="#FABE55"/>
<path d="M35.1292 24C35.1292 22.3203 35.1292 20.6509 35.1292 18.9506C35.5104 18.8579 35.8814 18.8888 36.3142 18.93C36.3142 19.3525 36.3039 19.7544 36.3142 20.1666C36.3451 21.4444 36.2524 22.7222 36.3657 24C35.9535 24 35.5413 24 35.1292 24Z" fill="#7335E7"/>
<path d="M14.8801 16.2611C14.8801 10.9335 14.8801 5.66769 14.8801 0.391603C14.942 0.370993 15.0038 0.340079 15.0656 0.340079C18.1571 0.370993 21.2485 0.23703 24.3297 0.422518C25.1232 0.474042 25.896 0.638919 26.6277 0.948065C27.4005 1.26752 28.0703 1.74154 28.4001 2.5144C29.1627 4.28684 29.276 6.05927 28.1116 7.74927C28.06 7.8214 28.0188 7.89354 27.9467 7.99658C28.9256 8.73853 29.5233 9.70719 29.5955 10.9438C29.6779 12.4586 29.5336 13.9116 28.2661 14.9833C27.452 15.6737 26.4525 15.9313 25.4323 16.0962C24.4946 16.2405 23.5568 16.2817 22.6088 16.2817C20.0532 16.2611 17.4976 16.2611 14.8801 16.2611ZM18.6826 12.809C20.1974 12.809 21.671 12.8193 23.1446 12.809C23.7732 12.7986 24.4121 12.778 25.0098 12.5101C25.4632 12.304 25.6899 11.9433 25.7002 11.459C25.7208 10.9953 25.5147 10.6346 25.1025 10.3976C24.8037 10.2327 24.4739 10.1194 24.1339 10.0885C22.3511 9.92359 20.5787 10.0266 18.796 10.0266C18.7651 10.0266 18.7444 10.0576 18.6929 10.0988C18.6826 10.9747 18.6826 11.8609 18.6826 12.809ZM18.6929 6.5436C18.796 6.5539 18.8784 6.57451 18.9608 6.57451C20.3108 6.57451 21.671 6.58482 23.021 6.57451C23.3919 6.57451 23.7732 6.51268 24.1339 6.38903C24.7213 6.18293 25.0098 5.80165 25.0304 5.21427C25.0407 4.64751 24.7522 4.23531 24.1751 4.00861C23.7217 3.82312 23.2374 3.7922 22.7633 3.7922C21.4134 3.7819 20.0635 3.7922 18.6929 3.7922C18.6929 4.71964 18.6929 5.61616 18.6929 6.5436Z" fill="#7335E7"/>
<path d="M0.824354 16.2405C0.824354 14.736 0.824354 13.2212 0.824354 11.7166C0.824354 9.86177 1.556 8.8725 3.34904 8.30574C3.06051 8.19238 2.77197 8.10994 2.51435 7.97598C1.41173 7.3886 0.844963 6.47147 0.834658 5.23489C0.814049 3.60672 0.824354 1.97856 0.824354 0.35039C2.69984 0.340085 4.56501 0.329781 6.4405 0.329781C8.37781 0.329781 10.3151 0.329781 12.2627 0.329781C12.4482 0.329781 12.6337 0.329781 12.8501 0.329781C12.8501 1.48392 12.8501 2.58654 12.8501 3.75099C10.1399 3.75099 7.41946 3.75099 4.70928 3.75099C4.41044 5.50282 5.28635 6.57452 6.95574 6.57452C8.72818 6.57452 10.4903 6.57452 12.2627 6.57452C12.4482 6.57452 12.6337 6.57452 12.8501 6.57452C12.8501 7.71836 12.8501 8.82098 12.8501 9.94421C12.6852 10.0679 12.4894 10.006 12.3143 10.006C10.5315 10.006 8.74878 10.006 6.95574 10.006C5.27605 10.006 4.40014 11.0777 4.69898 12.8193C7.39885 12.8193 10.0987 12.8193 12.8398 12.8193C12.8398 13.9734 12.8398 15.076 12.8398 16.1889C12.7574 16.292 12.6234 16.2508 12.5101 16.2508C8.69726 16.2508 4.88447 16.2508 1.08197 16.2508C0.999536 16.2611 0.906792 16.2405 0.824354 16.2405Z" fill="#7335E7"/>
</g>
<defs>
<clipPath id="clip0_257_1736">
<rect width="50.0713" height="24" fill="white"/>
</clipPath>
</defs>
</svg>
