<svg width="151" height="33" viewBox="0 0 151 33" fill="none" xmlns="http://www.w3.org/2000/svg">
<rect y="0.5" width="32" height="32" rx="16" fill="#7436EA"/>
<path d="M42.49 16.1C42.49 15.1387 42.7047 14.28 43.134 13.524C43.5727 12.7587 44.1653 12.166 44.912 11.746C45.668 11.3167 46.5127 11.102 47.446 11.102C48.538 11.102 49.4947 11.382 50.316 11.942C51.1373 12.502 51.7113 13.2767 52.038 14.266H49.784C49.56 13.7993 49.2427 13.4493 48.832 13.216C48.4307 12.9827 47.964 12.866 47.432 12.866C46.8627 12.866 46.354 13.0013 45.906 13.272C45.4673 13.5333 45.122 13.9067 44.87 14.392C44.6273 14.8773 44.506 15.4467 44.506 16.1C44.506 16.744 44.6273 17.3133 44.87 17.808C45.122 18.2933 45.4673 18.6713 45.906 18.942C46.354 19.2033 46.8627 19.334 47.432 19.334C47.964 19.334 48.4307 19.2173 48.832 18.984C49.2427 18.7413 49.56 18.3867 49.784 17.92H52.038C51.7113 18.9187 51.1373 19.698 50.316 20.258C49.504 20.8087 48.5473 21.084 47.446 21.084C46.5127 21.084 45.668 20.874 44.912 20.454C44.1653 20.0247 43.5727 19.432 43.134 18.676C42.7047 17.92 42.49 17.0613 42.49 16.1ZM57.1561 21.126C56.4094 21.126 55.7374 20.9627 55.1401 20.636C54.5428 20.3 54.0714 19.8287 53.7261 19.222C53.3901 18.6153 53.2221 17.9153 53.2221 17.122C53.2221 16.3287 53.3948 15.6287 53.7401 15.022C54.0948 14.4153 54.5754 13.9487 55.1821 13.622C55.7888 13.286 56.4654 13.118 57.2121 13.118C57.9588 13.118 58.6354 13.286 59.2421 13.622C59.8488 13.9487 60.3248 14.4153 60.6701 15.022C61.0248 15.6287 61.2021 16.3287 61.2021 17.122C61.2021 17.9153 61.0201 18.6153 60.6561 19.222C60.3014 19.8287 59.8161 20.3 59.2001 20.636C58.5934 20.9627 57.9121 21.126 57.1561 21.126ZM57.1561 19.418C57.5108 19.418 57.8421 19.334 58.1501 19.166C58.4674 18.9887 58.7194 18.7273 58.9061 18.382C59.0928 18.0367 59.1861 17.6167 59.1861 17.122C59.1861 16.3847 58.9901 15.82 58.5981 15.428C58.2154 15.0267 57.7441 14.826 57.1841 14.826C56.6241 14.826 56.1528 15.0267 55.7701 15.428C55.3968 15.82 55.2101 16.3847 55.2101 17.122C55.2101 17.8593 55.3921 18.4287 55.7561 18.83C56.1294 19.222 56.5961 19.418 57.1561 19.418ZM72.2718 13.132C73.2238 13.132 73.9892 13.426 74.5678 14.014C75.1558 14.5927 75.4498 15.4047 75.4498 16.45V21H73.4898V16.716C73.4898 16.1093 73.3358 15.6473 73.0278 15.33C72.7198 15.0033 72.2998 14.84 71.7678 14.84C71.2358 14.84 70.8112 15.0033 70.4938 15.33C70.1858 15.6473 70.0318 16.1093 70.0318 16.716V21H68.0718V16.716C68.0718 16.1093 67.9178 15.6473 67.6098 15.33C67.3018 15.0033 66.8818 14.84 66.3498 14.84C65.8085 14.84 65.3792 15.0033 65.0618 15.33C64.7538 15.6473 64.5998 16.1093 64.5998 16.716V21H62.6398V13.244H64.5998V14.182C64.8518 13.8553 65.1738 13.5987 65.5658 13.412C65.9672 13.2253 66.4058 13.132 66.8818 13.132C67.4885 13.132 68.0298 13.2627 68.5058 13.524C68.9818 13.776 69.3505 14.14 69.6118 14.616C69.8638 14.168 70.2278 13.8087 70.7038 13.538C71.1892 13.2673 71.7118 13.132 72.2718 13.132ZM79.2698 14.364C79.5218 14.0093 79.8671 13.7153 80.3058 13.482C80.7538 13.2393 81.2624 13.118 81.8318 13.118C82.4944 13.118 83.0918 13.2813 83.6238 13.608C84.1651 13.9347 84.5898 14.4013 84.8978 15.008C85.2151 15.6053 85.3738 16.3007 85.3738 17.094C85.3738 17.8873 85.2151 18.592 84.8978 19.208C84.5898 19.8147 84.1651 20.286 83.6238 20.622C83.0918 20.958 82.4944 21.126 81.8318 21.126C81.2624 21.126 80.7584 21.0093 80.3198 20.776C79.8904 20.5427 79.5404 20.2487 79.2698 19.894V24.696H77.3098V13.244H79.2698V14.364ZM83.3718 17.094C83.3718 16.6273 83.2738 16.226 83.0778 15.89C82.8911 15.5447 82.6391 15.2833 82.3218 15.106C82.0138 14.9287 81.6778 14.84 81.3138 14.84C80.9591 14.84 80.6231 14.9333 80.3058 15.12C79.9978 15.2973 79.7458 15.5587 79.5498 15.904C79.3631 16.2493 79.2698 16.6553 79.2698 17.122C79.2698 17.5887 79.3631 17.9947 79.5498 18.34C79.7458 18.6853 79.9978 18.9513 80.3058 19.138C80.6231 19.3153 80.9591 19.404 81.3138 19.404C81.6778 19.404 82.0138 19.3107 82.3218 19.124C82.6391 18.9373 82.8911 18.6713 83.0778 18.326C83.2738 17.9807 83.3718 17.57 83.3718 17.094ZM86.294 17.094C86.294 16.31 86.448 15.6147 86.756 15.008C87.0734 14.4013 87.498 13.9347 88.03 13.608C88.5714 13.2813 89.1734 13.118 89.836 13.118C90.4147 13.118 90.9187 13.2347 91.348 13.468C91.7867 13.7013 92.1367 13.9953 92.398 14.35V13.244H94.372V21H92.398V19.866C92.146 20.23 91.796 20.5333 91.348 20.776C90.9094 21.0093 90.4007 21.126 89.822 21.126C89.1687 21.126 88.5714 20.958 88.03 20.622C87.498 20.286 87.0734 19.8147 86.756 19.208C86.448 18.592 86.294 17.8873 86.294 17.094ZM92.398 17.122C92.398 16.646 92.3047 16.24 92.118 15.904C91.9314 15.5587 91.6794 15.2973 91.362 15.12C91.0447 14.9333 90.704 14.84 90.34 14.84C89.976 14.84 89.64 14.9287 89.332 15.106C89.024 15.2833 88.772 15.5447 88.576 15.89C88.3894 16.226 88.296 16.6273 88.296 17.094C88.296 17.5607 88.3894 17.9713 88.576 18.326C88.772 18.6713 89.024 18.9373 89.332 19.124C89.6494 19.3107 89.9854 19.404 90.34 19.404C90.704 19.404 91.0447 19.3153 91.362 19.138C91.6794 18.9513 91.9314 18.69 92.118 18.354C92.3047 18.0087 92.398 17.598 92.398 17.122ZM100.584 13.132C101.508 13.132 102.255 13.426 102.824 14.014C103.394 14.5927 103.678 15.4047 103.678 16.45V21H101.718V16.716C101.718 16.1 101.564 15.6287 101.256 15.302C100.948 14.966 100.528 14.798 99.9963 14.798C99.455 14.798 99.0256 14.966 98.7083 15.302C98.4003 15.6287 98.2463 16.1 98.2463 16.716V21H96.2863V13.244H98.2463V14.21C98.5076 13.874 98.839 13.6127 99.2403 13.426C99.651 13.23 100.099 13.132 100.584 13.132ZM112.962 13.244L108.16 24.668H106.074L107.754 20.804L104.646 13.244H106.844L108.846 18.662L110.876 13.244H112.962Z" fill="#7436EA"/>
<path d="M119.315 19.446H122.535V21H117.355V11.228H119.315V19.446ZM127.224 21.126C126.478 21.126 125.806 20.9627 125.208 20.636C124.611 20.3 124.14 19.8287 123.794 19.222C123.458 18.6153 123.29 17.9153 123.29 17.122C123.29 16.3287 123.463 15.6287 123.808 15.022C124.163 14.4153 124.644 13.9487 125.25 13.622C125.857 13.286 126.534 13.118 127.28 13.118C128.027 13.118 128.704 13.286 129.31 13.622C129.917 13.9487 130.393 14.4153 130.738 15.022C131.093 15.6287 131.27 16.3287 131.27 17.122C131.27 17.9153 131.088 18.6153 130.724 19.222C130.37 19.8287 129.884 20.3 129.268 20.636C128.662 20.9627 127.98 21.126 127.224 21.126ZM127.224 19.418C127.579 19.418 127.91 19.334 128.218 19.166C128.536 18.9887 128.788 18.7273 128.974 18.382C129.161 18.0367 129.254 17.6167 129.254 17.122C129.254 16.3847 129.058 15.82 128.666 15.428C128.284 15.0267 127.812 14.826 127.252 14.826C126.692 14.826 126.221 15.0267 125.838 15.428C125.465 15.82 125.278 16.3847 125.278 17.122C125.278 17.8593 125.46 18.4287 125.824 18.83C126.198 19.222 126.664 19.418 127.224 19.418ZM135.746 13.118C136.325 13.118 136.834 13.2347 137.272 13.468C137.711 13.692 138.056 13.986 138.308 14.35V13.244H140.282V21.056C140.282 21.7747 140.138 22.414 139.848 22.974C139.559 23.5433 139.125 23.9913 138.546 24.318C137.968 24.654 137.268 24.822 136.446 24.822C135.345 24.822 134.44 24.5653 133.73 24.052C133.03 23.5387 132.634 22.8387 132.54 21.952H134.486C134.589 22.3067 134.808 22.5867 135.144 22.792C135.49 23.0067 135.905 23.114 136.39 23.114C136.96 23.114 137.422 22.9413 137.776 22.596C138.131 22.26 138.308 21.7467 138.308 21.056V19.852C138.056 20.216 137.706 20.5193 137.258 20.762C136.82 21.0047 136.316 21.126 135.746 21.126C135.093 21.126 134.496 20.958 133.954 20.622C133.413 20.286 132.984 19.8147 132.666 19.208C132.358 18.592 132.204 17.8873 132.204 17.094C132.204 16.31 132.358 15.6147 132.666 15.008C132.984 14.4013 133.408 13.9347 133.94 13.608C134.482 13.2813 135.084 13.118 135.746 13.118ZM138.308 17.122C138.308 16.646 138.215 16.24 138.028 15.904C137.842 15.5587 137.59 15.2973 137.272 15.12C136.955 14.9333 136.614 14.84 136.25 14.84C135.886 14.84 135.55 14.9287 135.242 15.106C134.934 15.2833 134.682 15.5447 134.486 15.89C134.3 16.226 134.206 16.6273 134.206 17.094C134.206 17.5607 134.3 17.9713 134.486 18.326C134.682 18.6713 134.934 18.9373 135.242 19.124C135.56 19.3107 135.896 19.404 136.25 19.404C136.614 19.404 136.955 19.3153 137.272 19.138C137.59 18.9513 137.842 18.69 138.028 18.354C138.215 18.0087 138.308 17.598 138.308 17.122ZM145.64 21.126C144.894 21.126 144.222 20.9627 143.624 20.636C143.027 20.3 142.556 19.8287 142.21 19.222C141.874 18.6153 141.706 17.9153 141.706 17.122C141.706 16.3287 141.879 15.6287 142.224 15.022C142.579 14.4153 143.06 13.9487 143.666 13.622C144.273 13.286 144.95 13.118 145.696 13.118C146.443 13.118 147.12 13.286 147.726 13.622C148.333 13.9487 148.809 14.4153 149.154 15.022C149.509 15.6287 149.686 16.3287 149.686 17.122C149.686 17.9153 149.504 18.6153 149.14 19.222C148.786 19.8287 148.3 20.3 147.684 20.636C147.078 20.9627 146.396 21.126 145.64 21.126ZM145.64 19.418C145.995 19.418 146.326 19.334 146.634 19.166C146.952 18.9887 147.204 18.7273 147.39 18.382C147.577 18.0367 147.67 17.6167 147.67 17.122C147.67 16.3847 147.474 15.82 147.082 15.428C146.7 15.0267 146.228 14.826 145.668 14.826C145.108 14.826 144.637 15.0267 144.254 15.428C143.881 15.82 143.694 16.3847 143.694 17.122C143.694 17.8593 143.876 18.4287 144.24 18.83C144.614 19.222 145.08 19.418 145.64 19.418Z" fill="#FFC255"/>
</svg>
